# xmcd
#
# Track frame offsets:
#	150
#	97652
#	103208
#	139174
#	213315
#	265221
#
# Disc length: 4190 seconds
#
# Revision: 1
# Processed by: cddbd v1.5.2PL0 Copyright (c) Steve Scherf et al.
# Submitted via: audiograbber 1.83.01
#
DISCID=4f105c06
DTITLE=Grateful Dead - 77-04-22 The Spectrum, Philadelphia PA
DYEAR=1900
DGENRE=
TTITLE0=Playing In The Band
TTITLE1=Tuning
TTITLE2=Scarlet Begonias
TTITLE3=Fire On The Mountain
TTITLE4=Samson and Delilah
TTITLE5=It Must Have Been The Roses
EXTD=
EXTT0=
EXTT1=
EXTT2=
EXTT3=
EXTT4=
EXTT5=
PLAYORDER=
